<svg id="Layer_1" enable-background="new 0 0 512.002 512.002" height="512" viewBox="0 0 512.002 512.002" width="512" xmlns="http://www.w3.org/2000/svg"><g><path d="m411.111 0h-42.081v42.082c0 23.204 18.878 42.082 42.082 42.082s42.081-18.877 42.081-42.082-18.878-42.082-42.082-42.082z" fill="#fff5f5"/><path d="m411.111 0h-42.081v42.082c0 23.204 18.878 42.082 42.082 42.082s42.081-18.877 42.081-42.082-18.878-42.082-42.082-42.082z" fill="#ece6f2"/><path d="m365.913 408.997h-224.836c-45.362 0-82.268 36.905-82.268 82.268v20.737h389.371v-20.737c.001-45.363-36.905-82.268-82.267-82.268z" fill="#ff4d4d"/><path d="m448.181 491.265c0-45.363-36.905-82.268-82.268-82.268h-112.418v103.005h194.686z" fill="#e20f5a"/><path d="m253.495 0v97.706h82.091c34.983 0 63.443-28.46 63.443-63.443v-34.263z" fill="#e20f5a"/><path d="m253.495 0v97.706h82.091c34.983 0 63.443-28.46 63.443-63.443v-34.263z" fill="#c21250"/><path d="m123.114 253.105c0 36.568 29.645 66.213 66.213 66.213 10.017 0 19.903-2.273 28.914-6.647l6.34-3.078c18.257-8.862 39.57-8.862 57.827 0l6.341 3.078c9.011 4.374 18.897 6.647 28.914 6.647 36.568 0 66.213-29.645 66.213-66.213v-57.313h-260.762z" fill="#ffe1d2"/><path d="m253.495 302.948c9.893 0 19.785 2.216 28.914 6.647l6.341 3.078c9.011 4.374 18.897 6.646 28.914 6.646 36.568 0 66.213-29.645 66.213-66.213v-57.313h-130.382z" fill="#ffcbbc"/><path d="m108.114 195.793v97.947c0 16.606-3.83 33.407-11.383 49.935-4.025 8.81-6.066 18.217-6.066 27.961 0 17.594 6.743 34.239 18.986 46.869 9.428 9.724 21.334 16.269 34.332 19.017 8.066 25.169 30.508 43.648 57.079 46.462 11.598 17.272 31.289 28.018 52.433 28.018s40.835-10.747 52.433-28.018c26.571-2.814 49.013-21.293 57.079-46.462 12.998-2.749 24.904-9.293 34.332-19.017 12.244-12.63 18.986-29.275 18.986-46.869 0-9.744-2.041-19.151-6.066-27.961-7.553-16.528-11.383-33.329-11.383-49.935v-97.947h-30v57.313c0 28.239-22.974 51.213-51.213 51.213-7.702 0-15.436-1.778-22.364-5.141l-6.34-3.078c-10.987-5.333-23.25-8.152-35.464-8.152s-24.477 2.819-35.463 8.152l-6.341 3.078c-6.928 3.363-14.661 5.141-22.363 5.141-28.239 0-51.213-22.974-51.213-51.213v-57.313z" fill="#ece6f2"/><path d="m410.259 343.674c-7.553-16.528-11.383-33.329-11.383-49.935v-97.947h-30v57.313c0 28.239-22.974 51.213-51.213 51.213-7.702 0-15.436-1.778-22.364-5.141l-6.34-3.078c-10.987-5.333-23.25-8.152-35.464-8.152v224.054c21.144 0 40.835-10.747 52.433-28.018 26.571-2.814 49.013-21.293 57.079-46.462 12.998-2.749 24.904-9.293 34.332-19.017 12.244-12.63 18.986-29.275 18.986-46.869 0-9.744-2.041-19.151-6.066-27.961z" fill="#d7cfe6"/><path d="m310.458 27.353c-13.927-17.383-34.689-27.353-56.963-27.353s-43.036 9.97-56.962 27.353l-100.016 124.833h313.956z" fill="#ff4d4d"/><path d="m310.458 27.353c-13.927-17.383-34.689-27.353-56.963-27.353v152.186h156.978z" fill="#e20f5a"/><g><path d="m183.525 238.294h30v30.002h-30z" fill="#143d66"/></g><g><path d="m293.465 238.294h30v30.002h-30z" fill="#143d66"/></g><g><path d="m253.495 374.015c-17.802 0-34.537-6.932-47.124-19.52l21.214-21.213c6.92 6.921 16.122 10.732 25.91 10.732s18.989-3.812 25.911-10.732l21.213 21.213c-12.587 12.588-29.323 19.52-47.124 19.52z" fill="#ffcbbc"/></g><path d="m383.876 122.186h-260.762c-24.429 0-44.304 19.875-44.304 44.303 0 24.429 19.875 44.304 44.304 44.304h260.762c24.429 0 44.303-19.875 44.303-44.304 0-24.428-19.874-44.303-44.303-44.303z" fill="#fff5f5"/><path d="m428.179 166.489c0-24.429-19.875-44.303-44.303-44.303h-130.381v88.607h130.381c24.429 0 44.303-19.875 44.303-44.304z" fill="#ece6f2"/><g><path d="m293.465 238.294h30v30.002h-30z" fill="#0f244d"/></g><path d="m279.406 333.283c-6.921 6.921-16.123 10.732-25.911 10.732v30c17.801 0 34.537-6.932 47.124-19.52z" fill="#ffbcae"/></g></svg>